<svg width="218" height="95" viewBox="0 0 218 95" fill="none" xmlns="http://www.w3.org/2000/svg">
<path d="M93.5188 66.7886V72.2729H76.3391V66.7886H93.5188ZM78.6125 38.1479V72.2729H71.5813V38.1479H78.6125ZM111.894 43.9839L102.613 72.2729H95.136L107.816 38.1479H112.573L111.894 43.9839ZM119.605 72.2729L110.3 43.9839L109.55 38.1479H114.355L127.105 72.2729H119.605ZM119.183 59.5698V65.0776H101.159V59.5698H119.183ZM133.48 38.1479H139.433L148.198 63.2026L156.964 38.1479H162.917L150.589 72.2729H145.808L133.48 38.1479ZM130.269 38.1479H136.198L137.277 62.5698V72.2729H130.269V38.1479ZM160.198 38.1479H166.152V72.2729H159.12V62.5698L160.198 38.1479ZM179.792 38.1479V72.2729H172.784V38.1479H179.792ZM200.675 43.9839L191.394 72.2729H183.917L196.597 38.1479H201.355L200.675 43.9839ZM208.386 72.2729L199.081 43.9839L198.331 38.1479H203.136L215.886 72.2729H208.386ZM207.964 59.5698V65.0776H189.941V59.5698H207.964Z" fill="#00679A"/>
<path d="M18.6272 55.441C18.2393 55.504 17.9753 55.8717 18.0385 56.2603C18.1014 56.6471 18.4683 56.9122 18.8561 56.8491C19.2441 56.786 19.5081 56.4184 19.4452 56.0316C19.3821 55.643 19.0152 55.3779 18.6272 55.441ZM18.9778 57.5975C18.1774 57.7276 17.42 57.1809 17.2901 56.3819C17.1599 55.5812 17.7051 54.8228 18.5056 54.6926C19.306 54.5625 20.0636 55.1091 20.1938 55.9099C20.3237 56.7089 19.7782 57.4674 18.9778 57.5975Z" fill="#D40000"/>
<path d="M18.9108 57.12C19.4348 57.0348 19.7871 56.5197 19.6976 55.9695C19.6082 55.4193 19.1108 55.0423 18.5868 55.1275C18.0628 55.2127 17.7105 55.7278 17.8 56.278C17.8894 56.8282 18.3867 57.2052 18.9108 57.12Z" fill="#D40000"/>
<path d="M19.9693 67.0782L21.2468 66.8457L19.3547 56.4512L18.0773 56.6838L19.9693 67.0782Z" fill="#D40000"/>
<path d="M21.6616 68.0201C21.5913 67.6335 21.2187 67.3764 20.8314 67.4469C20.4458 67.5171 20.1877 67.8889 20.2581 68.2756C20.3285 68.6622 20.701 68.9193 21.0866 68.8491C21.474 68.7786 21.732 68.4068 21.6616 68.0201ZM19.5121 68.4113C19.3669 67.6135 19.8992 66.846 20.6956 66.701C21.4937 66.5557 22.2623 67.0865 22.4076 67.8843C22.5528 68.6821 22.0206 69.4499 21.2224 69.5952C20.426 69.7402 19.6574 69.2092 19.5121 68.4113Z" fill="#D40000"/>
<path d="M19.9889 68.3351C20.084 68.8574 20.6057 69.1999 21.1541 69.1C21.7025 69.0002 22.07 68.4959 21.975 67.9736C21.8799 67.4513 21.3582 67.1088 20.8098 67.2086C20.2614 67.3084 19.8938 67.8128 19.9889 68.3351Z" fill="#D40000"/>
<path d="M37.0514 61.2873L36.3182 60.187L21.5424 67.202L22.2756 68.3023L37.0514 61.2873Z" fill="#D40000"/>
<path d="M36.511 59.8878C36.1231 59.9508 35.8591 60.3184 35.9223 60.7071C35.9852 61.0939 36.3521 61.3589 36.7399 61.2959C37.1279 61.2328 37.3919 60.8652 37.329 60.4784C37.2658 60.0897 36.8989 59.8247 36.511 59.8878ZM36.8616 62.0443C36.0612 62.1744 35.3038 61.6277 35.1739 60.8287C35.0437 60.028 35.5889 59.2695 36.3893 59.1394C37.1898 59.0093 37.9474 59.5559 38.0775 60.3567C38.2074 61.1557 37.662 61.9141 36.8616 62.0443Z" fill="#D40000"/>
<path d="M36.7946 61.5668C37.3186 61.4816 37.6709 60.9665 37.5814 60.4163C37.4919 59.866 36.9946 59.4891 36.4706 59.5743C35.9466 59.6595 35.5943 60.1746 35.6838 60.7248C35.7732 61.275 36.2705 61.652 36.7946 61.5668Z" fill="#D40000"/>
<path d="M24.2943 63.1766L23.3315 62.0562L8.78338 67.4202L9.7462 68.5407L24.2943 63.1766Z" fill="#0189B3"/>
<path d="M24.4293 61.6768C24.0414 61.7399 23.7774 62.1075 23.8406 62.4961C23.9035 62.883 24.2704 63.148 24.6582 63.0849C25.0462 63.0219 25.3102 62.6543 25.2473 62.2674C25.1841 61.8788 24.8172 61.6138 24.4293 61.6768ZM24.7799 63.8333C23.9795 63.9635 23.2221 63.4168 23.0922 62.6178C22.962 61.817 23.5072 61.0586 24.3077 60.9285C25.1081 60.7983 25.8657 61.345 25.9959 62.1457C26.1257 62.9447 25.5803 63.7032 24.7799 63.8333Z" fill="#0189B3"/>
<path d="M24.7129 63.3558C25.2369 63.2706 25.5892 62.7555 25.4997 62.2053C25.4103 61.6551 24.9129 61.2781 24.3889 61.3633C23.8649 61.4485 23.5126 61.9636 23.6021 62.5138C23.6915 63.064 24.1888 63.441 24.7129 63.3558Z" fill="#0189B3"/>
<path d="M8.33671 67.42C7.94883 67.4831 7.68479 67.8507 7.74798 68.2393C7.81087 68.6261 8.17775 68.8912 8.56564 68.8281C8.95357 68.765 9.21761 68.3974 9.15472 68.0106C9.09154 67.622 8.72464 67.3569 8.33671 67.42ZM8.6873 69.5765C7.88688 69.7066 7.12951 69.1599 6.99961 68.361C6.86943 67.5602 7.41462 66.8018 8.21505 66.6716C9.01547 66.5415 9.77306 67.0881 9.90325 67.8889C10.0331 68.6879 9.48773 69.4464 8.6873 69.5765Z" fill="#0189B3"/>
<path d="M8.62022 69.099C9.14423 69.0138 9.49652 68.4987 9.40707 67.9485C9.31762 67.3983 8.8203 67.0213 8.29629 67.1065C7.77227 67.1917 7.41999 67.7068 7.50944 68.257C7.59889 68.8072 8.09621 69.1842 8.62022 69.099Z" fill="#0189B3"/>
<path d="M27.796 79.7544L29.0307 79.2651L25.5219 63.3061L24.2872 63.7953L27.796 79.7544Z" fill="#0189B3"/>
<path d="M14.1409 62.5914L12.8687 62.8623L14.983 73.6537L16.2552 73.3828L14.1409 62.5914Z" fill="#FF6600"/>
<path d="M14.9835 74.214C14.9864 74.607 15.3093 74.9242 15.703 74.9213C16.0949 74.9183 16.413 74.5963 16.4101 74.2034C16.4072 73.8104 16.0843 73.4932 15.6924 73.4961C15.2987 73.499 14.9806 73.821 14.9835 74.214ZM17.1683 74.1977C17.1743 75.0086 16.5181 75.6734 15.7087 75.6794C14.8974 75.6855 14.2314 75.0306 14.2253 74.2197C14.2193 73.4088 14.8755 72.7438 15.6867 72.7377C16.4962 72.7317 17.1622 73.3868 17.1683 74.1977Z" fill="#FF6600"/>
<path d="M16.6855 74.1907C16.6815 73.6598 16.2264 73.2328 15.669 73.237C15.1116 73.2411 14.6629 73.6749 14.6668 74.2057C14.6708 74.7366 15.1259 75.1636 15.6833 75.1595C16.2407 75.1553 16.6894 74.7216 16.6855 74.1907Z" fill="#FF6600"/>
<path d="M32.5514 71.3224C32.5543 71.7154 32.8772 72.0326 33.2709 72.0297C33.6628 72.0267 33.9809 71.7047 33.978 71.3118C33.975 70.9188 33.6522 70.6016 33.2603 70.6045C32.8665 70.6074 32.5485 70.9294 32.5514 71.3224ZM34.7361 71.3061C34.7422 72.117 34.086 72.7818 33.2766 72.7878C32.4653 72.7939 31.7993 72.139 31.7932 71.3281C31.7872 70.5172 32.4434 69.8522 33.2546 69.8461C34.0641 69.8401 34.7301 70.4952 34.7361 71.3061Z" fill="#FF6600"/>
<path d="M34.2533 71.2991C34.2494 70.7682 33.7943 70.3412 33.2368 70.3454C32.6794 70.3495 32.2307 70.7833 32.2347 71.3141C32.2387 71.845 32.6938 72.272 33.2512 72.2679C33.8086 72.2637 34.2573 71.83 34.2533 71.2991Z" fill="#FF6600"/>
<path d="M7.19166 55.5076L5.91415 55.7739L7.81912 68.4089L9.09662 68.1426L7.19166 55.5076Z" fill="#0189B3"/>
<path d="M6.14396 53.7305C5.75608 53.7936 5.49204 54.1612 5.55523 54.5498C5.61812 54.9367 5.985 55.2017 6.37289 55.1387C6.76082 55.0756 7.02487 54.708 6.96197 54.3211C6.89879 53.9325 6.53189 53.6675 6.14396 53.7305ZM6.49455 55.887C5.69413 56.0172 4.93676 55.4705 4.80686 54.6715C4.67668 53.8707 5.22187 53.1123 6.0223 52.9822C6.82272 52.852 7.58031 53.3987 7.7105 54.1994C7.84039 54.9984 7.29498 55.7569 6.49455 55.887Z" fill="#0189B3"/>
<path d="M6.4275 55.4095C6.95152 55.3244 7.3038 54.8093 7.21435 54.259C7.1249 53.7088 6.62758 53.3318 6.10357 53.417C5.57955 53.5022 5.22727 54.0173 5.31672 54.5675C5.40617 55.1178 5.90349 55.4947 6.4275 55.4095Z" fill="#0189B3"/>
<path d="M5.0102 58.9696L5.52469 60.1997L17.9162 56.8181L17.4017 55.588L5.0102 58.9696Z" fill="#D40000"/>
<path d="M3.58408 60.3525C3.83178 60.6576 4.28203 60.7037 4.58769 60.4555C4.89196 60.2085 4.9393 59.7584 4.6916 59.4533C4.44386 59.1482 3.99361 59.1021 3.68934 59.3491C3.38367 59.5973 3.33634 60.0474 3.58408 60.3525ZM5.28021 58.9754C5.79136 59.6049 5.69402 60.5339 5.0656 61.0442C4.43579 61.5555 3.50663 61.46 2.99547 60.8304C2.48432 60.2009 2.58152 59.2717 3.21133 58.7604C3.83975 58.2501 4.76906 58.3458 5.28021 58.9754Z" fill="#D40000"/>
<path d="M4.89883 59.2714C4.56419 58.8592 3.9421 58.8099 3.50934 59.1613C3.07658 59.5127 2.99704 60.1316 3.33168 60.5438C3.66631 60.9559 4.28841 61.0052 4.72117 60.6538C5.15393 60.3025 5.23347 59.6835 4.89883 59.2714Z" fill="#D40000"/>
<path d="M32.1828 70.9537L32.3269 72.2495L16.7995 74.565L16.6554 73.2692L32.1828 70.9537Z" fill="#FF6600"/>
<path d="M50.3845 14.6011C50.0158 14.8361 49.9077 15.3279 50.1431 15.6973C50.3775 16.0649 50.869 16.1744 51.2377 15.9394C51.6064 15.7044 51.7145 15.2126 51.4801 14.8449C51.2447 14.4756 50.7532 14.3661 50.3845 14.6011ZM51.6911 16.6507C50.9304 17.1357 49.916 16.9101 49.4319 16.1507C48.9467 15.3897 49.1703 14.3748 49.931 13.8899C50.6918 13.4049 51.7064 13.6303 52.1915 14.3914C52.6756 15.1508 52.4518 16.1657 51.6911 16.6507Z" fill="#00477F"/>
<path d="M51.4123 16.1909C51.9104 15.8734 52.0439 15.1921 51.7105 14.6691C51.3771 14.1462 50.7031 13.9797 50.2051 14.2972C49.707 14.6147 49.5736 15.296 49.9069 15.8189C50.2403 16.3419 50.9143 16.5084 51.4123 16.1909Z" fill="#00477F"/>
<path d="M39.3714 13.6133C38.9011 13.2704 38.2389 13.375 37.8954 13.8463C37.5534 14.3154 37.6563 14.9778 38.1266 15.3207C38.597 15.6636 39.2592 15.559 39.6012 15.0899C39.9447 14.6186 39.8418 13.9562 39.3714 13.6133ZM37.465 16.2282C36.4945 15.5206 36.2816 14.1535 36.9879 13.1847C37.6958 12.2137 39.0624 11.9982 40.033 12.7058C41.0036 13.4134 41.2167 14.7806 40.5088 15.7516C39.8025 16.7204 38.4356 16.9357 37.465 16.2282Z" fill="#00477F"/>
<path d="M37.8989 15.6601C38.5343 16.1233 39.4437 15.958 39.9301 15.2908C40.4165 14.6237 40.2957 13.7073 39.6603 13.244C39.0249 12.7808 38.1155 12.9461 37.6291 13.6133C37.1427 14.2805 37.2635 15.1969 37.8989 15.6601Z" fill="#00477F"/>
<path d="M37.9667 26.3193C37.1569 26.8356 36.9193 27.9159 37.4365 28.7273C37.9514 29.5349 39.0311 29.7755 39.8409 29.2592C40.6508 28.7428 40.8885 27.6625 40.3736 26.8549C39.8563 26.0435 38.7766 25.803 37.9667 26.3193ZM40.837 30.8217C39.1659 31.887 36.9375 31.3915 35.8741 29.7233C34.8083 28.0515 35.2995 25.8222 36.9706 24.7568C38.6417 23.6915 40.8705 24.1867 41.9363 25.8586C42.9998 27.5267 42.5081 29.7563 40.837 30.8217Z" fill="#00477F"/>
<path d="M40.2247 29.8126C41.3187 29.1152 41.6119 27.6185 40.8796 26.4698C40.1472 25.321 38.6666 24.9552 37.5726 25.6526C36.4785 26.3501 36.1853 27.8468 36.9177 28.9955C37.65 30.1443 39.1306 30.5101 40.2247 29.8126Z" fill="#00477F"/>
<path d="M29.9592 42.145C29.4889 41.8021 28.8267 41.9068 28.4832 42.378C28.1412 42.8471 28.2441 43.5095 28.7144 43.8524C29.1848 44.1954 29.847 44.0907 30.189 43.6216C30.5325 43.1504 30.4296 42.4879 29.9592 42.145ZM28.0528 44.7599C27.0823 44.0523 26.8694 42.6853 27.5757 41.7165C28.2836 40.7455 29.6502 40.53 30.6208 41.2375C31.5914 41.9451 31.8045 43.3123 31.0966 44.2833C30.3903 45.2521 29.0234 45.4675 28.0528 44.7599Z" fill="#00477F"/>
<path d="M28.4866 44.1918C29.122 44.6551 30.0315 44.4898 30.5179 43.8226C31.0043 43.1554 30.8835 42.239 30.2481 41.7758C29.6126 41.3125 28.7032 41.4779 28.2168 42.145C27.7304 42.8122 27.8512 43.7286 28.4866 44.1918Z" fill="#00477F"/>
<path d="M37.8668 38.5035C37.4981 38.7385 37.39 39.2303 37.6254 39.5996C37.8598 39.9673 38.3513 40.0768 38.7199 39.8418C39.0886 39.6067 39.1968 39.1149 38.9624 38.7473C38.7269 38.3779 38.2355 38.2684 37.8668 38.5035ZM39.1734 40.553C38.4127 41.038 37.3983 40.8124 36.9142 40.053C36.429 39.292 36.6526 38.2772 37.4133 37.7922C38.1741 37.3072 39.1886 37.5327 39.6738 38.2937C40.1579 39.0531 39.9341 40.068 39.1734 40.553Z" fill="#00477F"/>
<path d="M38.8946 40.0942C39.3926 39.7767 39.5261 39.0954 39.1927 38.5725C38.8593 38.0495 38.1853 37.883 37.6873 38.2005C37.1893 38.518 37.0558 39.1993 37.3892 39.7222C37.7225 40.2452 38.3965 40.4117 38.8946 40.0942Z" fill="#00477F"/>
<path d="M28.5238 79.6846C28.1359 79.7477 27.8718 80.1153 27.935 80.5039C27.9979 80.8908 28.3648 81.1558 28.7527 81.0928C29.1406 81.0297 29.4047 80.6621 29.3418 80.2752C29.2786 79.8866 28.9117 79.6216 28.5238 79.6846ZM28.8743 81.8411C28.0739 81.9713 27.3165 81.4246 27.1867 80.6256C27.0565 79.8248 27.6017 79.0664 28.4021 78.9363C29.2025 78.8061 29.9601 79.3528 30.0903 80.1535C30.2202 80.9525 29.6748 81.711 28.8743 81.8411Z" fill="#0189B3"/>
<path d="M28.8074 81.3637C29.3314 81.2785 29.6837 80.7634 29.5942 80.2131C29.5048 79.6629 29.0075 79.2859 28.4835 79.3711C27.9595 79.4563 27.6072 79.9714 27.6966 80.5216C27.7861 81.0719 28.2834 81.4488 28.8074 81.3637Z" fill="#0189B3"/>
<path d="M43.3521 71.5987C42.9643 71.6618 42.7002 72.0294 42.7634 72.418C42.8263 72.8049 43.1932 73.0699 43.5811 73.0068C43.969 72.9438 44.233 72.5762 44.1701 72.1893C44.107 71.8007 43.7401 71.5356 43.3521 71.5987ZM43.7027 73.7552C42.9023 73.8853 42.1449 73.3386 42.015 72.5397C41.8849 71.7389 42.43 70.9805 43.2305 70.8503C44.0309 70.7202 44.7885 71.2668 44.9187 72.0676C45.0486 72.8666 44.5032 73.6251 43.7027 73.7552Z" fill="#0189B3"/>
<path d="M43.6358 73.2777C44.1598 73.1925 44.5121 72.6774 44.4227 72.1272C44.3332 71.577 43.8359 71.2 43.3119 71.2852C42.7879 71.3704 42.4356 71.8855 42.525 72.4357C42.6145 72.9859 43.1118 73.3629 43.6358 73.2777Z" fill="#0189B3"/>
<path d="M28.3844 79.9178L29.298 80.9375L44.285 72.6116L43.3714 71.5919L28.3844 79.9178Z" fill="#0189B3"/>
<path d="M47.5578 64.8671L47.9536 66.0977L34.5251 71.831L34.1293 70.6004L47.5578 64.8671Z" fill="#FF6600"/>
<path d="M44.5454 61.4894C44.5484 61.8824 44.8712 62.1996 45.2649 62.1966C45.6569 62.1937 45.9749 61.8717 45.972 61.4788C45.9691 61.0858 45.6462 60.7685 45.2543 60.7715C44.8606 60.7744 44.5425 61.0964 44.5454 61.4894ZM46.7302 61.4731C46.7362 62.284 46.08 62.9488 45.2706 62.9548C44.4593 62.9609 43.7933 62.306 43.7873 61.4951C43.7812 60.6842 44.4374 60.0192 45.2486 60.0131C46.0581 60.0071 46.7241 60.6622 46.7302 61.4731Z" fill="#0189B3"/>
<path d="M46.2474 61.4661C46.2435 60.9352 45.7884 60.5082 45.231 60.5124C44.6735 60.5165 44.2249 60.9503 44.2288 61.4811C44.2328 62.012 44.6879 62.439 45.2453 62.4349C45.8027 62.4307 46.2514 61.997 46.2474 61.4661Z" fill="#0189B3"/>
<path d="M13.231 61.0704C12.8431 61.1334 12.5791 61.501 12.6422 61.8897C12.7051 62.2765 13.072 62.5416 13.4599 62.4785C13.8478 62.4154 14.1119 62.0478 14.049 61.661C13.9858 61.2723 13.6189 61.0073 13.231 61.0704ZM13.5816 63.2269C12.7811 63.357 12.0238 62.8103 11.8939 62.0113C11.7637 61.2106 12.3089 60.4521 13.1093 60.322C13.9097 60.1919 14.6673 60.7385 14.7975 61.5393C14.9274 62.3383 14.382 63.0967 13.5816 63.2269Z" fill="#FF6600"/>
<path d="M13.5145 62.7494C14.0385 62.6642 14.3908 62.1491 14.3013 61.5989C14.2119 61.0487 13.7146 60.6717 13.1905 60.7569C12.6665 60.8421 12.3142 61.3572 12.4037 61.9074C12.4931 62.4576 12.9905 62.8346 13.5145 62.7494Z" fill="#FF6600"/>
<path d="M38.6335 77.7955C38.2457 77.8585 37.9816 78.2261 38.0448 78.6148C38.1077 79.0016 38.4746 79.2667 38.8625 79.2036C39.2504 79.1405 39.5144 78.7729 39.4516 78.3861C39.3884 77.9974 39.0215 77.7324 38.6335 77.7955ZM38.9841 79.952C38.1837 80.0821 37.4263 79.5354 37.2964 78.7364C37.1663 77.9357 37.7114 77.1772 38.5119 77.0471C39.3123 76.917 40.0699 77.4636 40.2001 78.2644C40.33 79.0634 39.7846 79.8218 38.9841 79.952Z" fill="#D40000"/>
<path d="M38.9171 79.4745C39.4411 79.3893 39.7934 78.8742 39.7039 78.324C39.6145 77.7738 39.1172 77.3968 38.5931 77.482C38.0691 77.5672 37.7168 78.0823 37.8063 78.6325C37.8958 79.1827 38.3931 79.5597 38.9171 79.4745Z" fill="#D40000"/>
<path d="M37.4824 61.7623L36.183 61.8496L37.8219 77.4355L39.1214 77.3481L37.4824 61.7623Z" fill="#D40000"/>
<path d="M10.371 45.9551C9.98313 46.0182 9.7191 46.3858 9.78228 46.7744C9.84517 47.1613 10.2121 47.4263 10.5999 47.3633C10.9879 47.3002 11.2519 46.9326 11.189 46.5457C11.1258 46.1571 10.7589 45.8921 10.371 45.9551ZM10.7216 48.1116C9.92118 48.2418 9.16381 47.6951 9.03391 46.8961C8.90373 46.0953 9.44892 45.3369 10.2493 45.2068C11.0498 45.0767 11.8074 45.6233 11.9375 46.424C12.0674 47.223 11.522 47.9815 10.7216 48.1116Z" fill="#FF6600"/>
<path d="M10.6545 47.6342C11.1785 47.549 11.5308 47.0339 11.4414 46.4836C11.3519 45.9334 10.8546 45.5565 10.3306 45.6416C9.80657 45.7268 9.45429 46.2419 9.54374 46.7922C9.63319 47.3424 10.1305 47.7193 10.6545 47.6342Z" fill="#FF6600"/>
<path d="M11.407 47.1216L10.1393 47.4766L12.4267 60.9375L13.6944 60.5826L11.407 47.1216Z" fill="#FF6600"/>
<path d="M44.6469 3.49508C43.837 4.01135 43.5994 5.09165 44.1167 5.90303C44.6316 6.71072 45.7113 6.95125 46.5211 6.43497C47.331 5.91863 47.5687 4.83833 47.0537 4.03064C46.5365 3.21925 45.4568 2.97873 44.6469 3.49508ZM47.5172 7.99744C45.8461 9.06282 43.6177 8.56726 42.5543 6.89912C41.4884 5.22729 41.9796 2.998 43.6508 1.93263C45.3219 0.867247 47.5507 1.3625 48.6165 3.03434C49.68 4.70248 49.1883 6.93206 47.5172 7.99744Z" fill="#00477F"/>
<path d="M46.9047 6.98843C47.9988 6.29096 48.292 4.79429 47.5596 3.64554C46.8273 2.49679 45.3467 2.13095 44.2527 2.82842C43.1586 3.52589 42.8654 5.02256 43.5977 6.17131C44.3301 7.32006 45.8107 7.6859 46.9047 6.98843Z" fill="#00477F"/>
<path d="M48.4511 64.6119C48.0632 64.6749 47.7992 65.0426 47.8624 65.4312C47.9253 65.818 48.2922 66.0831 48.68 66.02C49.068 65.9569 49.332 65.5893 49.2691 65.2025C49.2059 64.8138 48.8391 64.5488 48.4511 64.6119ZM48.8017 66.7684C48.0013 66.8985 47.2439 66.3518 47.114 65.5528C46.9838 64.7521 47.529 63.9937 48.3295 63.8635C49.1299 63.7334 49.8875 64.28 50.0177 65.0808C50.1476 65.8798 49.6021 66.6383 48.8017 66.7684Z" fill="#FF6600"/>
<path d="M48.7347 66.2904C49.2588 66.2052 49.611 65.6901 49.5216 65.1399C49.4321 64.5897 48.9348 64.2127 48.4108 64.2979C47.8868 64.3831 47.5345 64.8982 47.624 65.4484C47.7134 65.9986 48.2107 66.3756 48.7347 66.2904Z" fill="#FF6600"/>
<path d="M45.6583 62.818L44.3619 62.6787L43.0386 71.746L44.335 71.8853L45.6583 62.818Z" fill="#0189B3"/>
<path d="M28.4164 86.6354L8.44251 78.2588C8.23882 78.1735 8.05429 78.0493 7.8994 77.8915C0.345174 70.2359 -2.0386 59.3344 1.82571 50.12C4.66868 43.3408 10.5576 38.2213 17.9833 36.074C18.8708 35.8193 19.7969 36.3288 20.0526 37.2152C20.3088 38.1014 19.7976 39.0282 18.9114 39.2844C12.4616 41.149 7.35713 45.5694 4.90683 51.4121C1.60483 59.2857 3.62615 68.6304 10.0484 75.3097L29.3957 83.4236C38.6623 83.3239 46.7438 78.216 50.0458 70.3425C53.7877 61.4199 50.7876 50.9496 42.5755 44.2861C42.0026 43.82 41.8023 43.0275 42.0891 42.3437L47.3368 29.8309C47.6927 28.9799 48.6723 28.5795 49.5222 28.9359L50.9854 29.5495C51.4263 29.7346 51.9383 29.5254 52.1242 29.082C52.3106 28.6398 52.1004 28.1274 51.6594 27.9424L34.0218 20.5456C33.5793 20.3599 33.0672 20.5695 32.8816 21.012C32.6949 21.4551 32.9052 21.9671 33.3478 22.1527L34.809 22.7655C35.6596 23.1223 36.0602 24.1015 35.7035 24.9521L30.4558 37.4649C30.1699 38.1496 29.4647 38.5624 28.7268 38.4787C27.608 38.3522 26.4708 38.2986 25.3463 38.3196C24.4275 38.3377 23.6622 37.6034 23.6446 36.6797C23.628 35.7573 24.3616 34.9954 25.2846 34.978C26.1355 34.962 26.9939 34.9845 27.8479 35.0443L31.9764 25.2001C29.8884 24.2744 28.9134 21.8358 29.8008 19.72C30.6991 17.5782 33.1718 16.5666 35.3137 17.4649L52.9513 24.8617C55.0919 25.7594 56.1051 28.2329 55.2068 30.3748C54.3198 32.4898 51.896 33.5035 49.7735 32.6638L45.6454 42.5072C54.2816 50.1377 57.2984 61.6921 53.1284 71.6353C49.2641 80.8497 39.8158 86.789 29.0594 86.7656C28.8418 86.7673 28.6207 86.7211 28.4163 86.6354" fill="#00477F"/>
</svg>
