<svg width="63" height="62" viewBox="0 0 63 62" fill="none" xmlns="http://www.w3.org/2000/svg">
<rect x="29.2439" y="22.075" width="12.0237" height="4" transform="rotate(-90 29.2439 22.075)" fill="#FF6600"/>
<rect width="12.0118" height="4.00395" transform="matrix(0.70641 -0.707803 0.70641 0.707803 18.2439 48.6125)" fill="#FF6600"/>
<rect width="12.0118" height="4.00395" transform="matrix(-0.70641 -0.707803 0.70641 -0.707803 40.7292 51.4465)" fill="#FF6600"/>
<rect width="12.0046" height="4.00637" transform="matrix(0.898453 -0.439069 0.437674 0.899134 38.6312 31.583)" fill="#FF6600"/>
<rect width="12.0046" height="4.00637" transform="matrix(-0.898453 -0.439069 0.437674 -0.899134 21.0294 35.958)" fill="#FF6600"/>
<ellipse cx="31.2439" cy="7.48519" rx="7.43902" ry="7.45369" fill="#67D9E8"/>
<ellipse cx="7.43902" cy="25.3741" rx="7.43902" ry="7.45369" fill="#67D9E8"/>
<ellipse cx="16.3658" cy="53.6981" rx="7.43902" ry="7.45369" fill="#67D9E8"/>
<ellipse cx="46.1219" cy="53.6981" rx="7.43902" ry="7.45369" fill="#67D9E8"/>
<ellipse cx="55.0488" cy="25.3741" rx="7.43902" ry="7.45369" fill="#67D9E8"/>
<ellipse cx="31.2439" cy="32.828" rx="11.9024" ry="11.9259" fill="#00679A"/>
</svg>
