<?xml version="1.0" standalone="no"?>
<!DOCTYPE svg PUBLIC "-//W3C//DTD SVG 20010904//EN"
 "http://www.w3.org/TR/2001/REC-SVG-20010904/DTD/svg10.dtd">
<svg version="1.0" xmlns="http://www.w3.org/2000/svg"
 width="200.000000pt" height="200.000000pt" viewBox="0 0 200.000000 200.000000"
 preserveAspectRatio="xMidYMid meet">

<g transform="translate(0.000000,200.000000) scale(0.100000,-0.100000)"
fill="#02c0d8" stroke="none">
<path d="M557 1984 c-173 -31 -296 -93 -394 -197 -124 -133 -163 -245 -163
-466 0 -97 6 -163 20 -229 33 -158 4 -140 305 -184 143 -20 319 -46 391 -58
154 -24 154 -24 154 -8 0 6 -24 64 -54 127 -30 64 -71 170 -92 236 -33 109
-37 131 -38 240 -1 103 2 127 20 166 77 166 282 219 696 180 145 -14 185 -9
151 20 -10 9 -49 27 -88 42 -327 124 -671 174 -908 131z"/>
<path d="M1000 1621 c-217 -50 -267 -237 -106 -396 93 -91 244 -154 370 -155
96 0 213 50 256 110 34 47 39 136 10 194 -45 93 -176 191 -307 229 -66 20
-177 28 -223 18z"/>
<path d="M1620 1549 c0 -11 16 -57 37 -102 30 -68 37 -96 41 -169 4 -81 2 -92
-24 -144 -63 -124 -227 -228 -446 -284 -287 -72 -620 -68 -1016 14 -89 18
-162 31 -162 28 0 -11 401 -877 410 -886 13 -13 262 28 443 74 574 144 922
379 1066 719 32 78 40 223 17 318 -21 83 -77 188 -143 264 -78 92 -191 189
-217 189 -3 0 -6 -9 -6 -21z"/>
</g>
</svg>
